# xmcd CD database file
#
# Track frame offsets:
#	150
#	15310
#	27870
#	42977
#	56967
#	71350
#	85197
#	98750
#	111647
#	122700
#	136597
#	150042
#	160202
#	174352
#	186677
#	214537
#
# Disc length: 2967 seconds
#
# Revision: 0
# Processed by: cddbd v1.5.1PL0 Copyright (c) Steve Scherf et al.
# Submitted via: CDex 1.51
#
DISCID=cc0b9510
DTITLE=Monica Zetterlund - Musik vi minns...
DYEAR=2003
DGENRE=Jazz
TTITLE0=Sakta vi gå genom stan
TTITLE1=Monicas vals
TTITLE2=Sweet Georgie Fame
TTITLE3=En gång i Stockholm
TTITLE4=Kärlek och pepparrot
TTITLE5=En man och en kvinna
TTITLE6=It Could Happen To You
TTITLE7=Mister Kelly
TTITLE8=Farfars vals
TTITLE9=När min vän
TTITLE10=Rockin' Chair
TTITLE11=I New York
TTITLE12=Säg tyst
TTITLE13=Du måste ta det kallt
TTITLE14=Den sista jäntan
TTITLE15=Stick iväg Jack
EXTD=YEAR: 2003
EXTT0=
EXTT1=
EXTT2=
EXTT3=
EXTT4=
EXTT5=
EXTT6=
EXTT7=
EXTT8=
EXTT9=
EXTT10=
EXTT11=
EXTT12=
EXTT13=
EXTT14=
EXTT15=
PLAYORDER=
